<svg xmlns="http://www.w3.org/2000/svg" aria-hidden="true" focusable="false">
    <symbol id="twitter-icon" viewBox="0 0 512 512">
        <g>
              <path d="M459.4 151.7c.3 4.6.3 9.1.3 13.7 0 138.7-105.6 298.5-298.6 298.5A296.5 296.5 0 0 1 0 417a217 217 0 0 0 25.3 1.2c49 0 94.3-16.6 130.3-44.8-46.1-1-84.8-31.2-98.1-72.8a111 111 0 0 0 47.4-2 105 105 0 0 1-84.1-103v-1.2c14 7.8 30.2 12.6 47.4 13.3A104.9 104.9 0 0 1 35.7 67.2a298.3 298.3 0 0 0 216.4 109.9 104.9 104.9 0 0 1 179-95.8 206.6 206.6 0 0 0 66.6-25.4 104.7 104.7 0 0 1-46.1 57.8c21-2.3 41.6-8.1 60.4-16.2a225.6 225.6 0 0 1-52.6 54.2z"/>
        </g>
    </symbol>
    <symbol id="facebook-icon" viewBox="0 0 320 512">
        <g>
            <path d="m279.1 288 14.3-92.7h-89v-60c0-25.4 12.5-50.2 52.3-50.2H297V6.4S260.4 0 225.4 0C152 0 104.3 44.4 104.3 124.7v70.6H22.9V288h81.4v224h100.2V288z"/>
        </g>
    </symbol>
    <symbol id="dribble-icon" viewBox="0 0 512 512">
        <g>
            <path d="M256 8C119.3 8 8 119.3 8 256s111.3 248 248 248 248-111.3 248-248S392.7 8 256 8zm164 114.4a211 211 0 0 1 47.8 132 495 495 0 0 0-147.5-6.9c-5.7-14-11.2-26.4-18.6-41.6 78.3-32 113.8-77.5 118.3-83.5zm-23.6-24.5c-3.8 5.4-35.7 48.3-111 76.5a1130.7 1130.7 0 0 0-79-124c67.1-16.2 138 1.3 190 47.5zM166 64.6c5.6 7.7 43.5 60.1 78.6 122.5a786.9 786.9 0 0 1-195.9 25.8A212.6 212.6 0 0 1 166 64.6zM44.2 256.3v-6.5c9.3.2 112 1.6 217.8-30.1a908 908 0 0 1 17.2 36C202.6 277.2 133 339.2 98.6 398a211 211 0 0 1-54.4-141.7zM126 423.4c22.1-45.2 82.2-103.6 167.6-132.7 29.7 77.3 42 142 45.1 160.6-68 29-150 21-212.7-27.9zm248.4 8.5a914.3 914.3 0 0 0-41.2-151 311 311 0 0 1 132 9 212.2 212.2 0 0 1-90.8 142z"/>
        </g>
    </symbol>
    <symbol id="instagram-icon" viewBox="0 0 448 512">
        <g>
            <path d="M224.1 141c-63.6 0-114.9 51.3-114.9 114.9s51.3 114.9 114.9 114.9S339 319.5 339 255.9 287.7 141 224.1 141zm0 189.6a74.8 74.8 0 1 1 .1-149.3 74.8 74.8 0 0 1-.1 149.3zm146.4-194.3a26.7 26.7 0 1 1-53.6 0 26.8 26.8 0 0 1 53.6 0zm76.1 27.2c-1.7-35.9-9.9-67.7-36.2-93.9-26.2-26.2-58-34.4-93.9-36.2-37-2.1-147.9-2.1-184.9 0-35.8 1.7-67.6 9.9-93.9 36.1s-34.4 58-36.2 93.9c-2.1 37-2.1 147.9 0 184.9 1.7 35.9 9.9 67.7 36.2 93.9s58 34.4 93.9 36.2c37 2.1 147.9 2.1 184.9 0 35.9-1.7 67.7-9.9 93.9-36.2 26.2-26.2 34.4-58 36.2-93.9 2.1-37 2.1-147.8 0-184.8zM398.8 388a75.6 75.6 0 0 1-42.6 42.6c-29.5 11.7-99.5 9-132.1 9s-102.7 2.6-132.1-9A75.6 75.6 0 0 1 49.4 388c-11.7-29.5-9-99.5-9-132.1s-2.6-102.7 9-132.1A75.6 75.6 0 0 1 92 81.2c29.5-11.7 99.5-9 132.1-9s102.7-2.6 132.1 9a75.6 75.6 0 0 1 42.6 42.6c11.7 29.5 9 99.5 9 132.1s2.7 102.7-9 132.1z"/>
        </g>
    </symbol>
    <symbol id="navbar">
        <g>
            <path d="M3 8c-.6 0-1 .4-1 1s.4 1 1 1h24c.6 0 1-.4 1-1s-.4-1-1-1H3zm0 6c-.6 0-1 .4-1 1s.4 1 1 1h24c.6 0 1-.4 1-1s-.4-1-1-1H3zm0 6c-.6 0-1 .4-1 1s.4 1 1 1h24c.6 0 1-.4 1-1s-.4-1-1-1H3z"/>
        </g>
    </symbol>
    <symbol id="logo" viewBox="0 0 488 90">
        <style>
            .st0{fill:#1d1d1b}
        </style>
        <g id="_x39_7221fff-9f5f-45e5-b2fa-fe4d6ef25df3" transform="translate(-4.4 -14.7) scale(1.21017)">
            <path class="st0" d="M44 46a6 6 0 0 0-3.5-2.7h-.2c-.8-.3-1.7-.4-2.5-.5-2.3-.3-4.5-1.1-6.4-2.4a.9.9 0 0 0-1 .6c-.1.3 0 .5.2.7l2 1-.2.4c-.9 3.2.9 6.5 4 7.5h.2l1.8.3c1.8 0 3.6-.8 4.7-2.3.1 1 0 2-.2 3-.1.4.1.9.5 1h.2c.3 0 .6-.2.7-.5A11.2 11.2 0 0 0 44 46zm-4.5-1.4v.5c-.2.7-.9 1.1-1.6 1-.7-.2-1.1-.9-1-1.6v-.3h.7l1.9.4zm1 4.2c-1.1.6-2.3.7-3.5.4a4.6 4.6 0 0 1-3.1-5.7v-.1l1.7.5c-.6 1.4.1 3.1 1.6 3.6 1.4.6 3.1-.1 3.6-1.6l.2-.9a4 4 0 0 1 1.5 1.4 4.4 4.4 0 0 1-2 2.4zm27-5.7v-.3l2-1.1c.3-.3.3-.8 0-1.1-.2-.3-.6-.3-.9-.2a14.7 14.7 0 0 1-6.4 2.4c-.8.1-1.7.2-2.5.5h-.2A6 6 0 0 0 56 46a11.2 11.2 0 0 0-.3 6.1c.1.3.4.5.7.5.4 0 .8-.4.7-.9v-.1c-.2-1-.3-2-.2-3a5.8 5.8 0 0 0 6.5 2 6 6 0 0 0 4.2-7.3l-.1-.2zm-5.2 1.2h.6c.3.7-.1 1.4-.7 1.7h-.1c-.7.2-1.4-.1-1.6-.8l-.1-.6c.6-.2 1.3-.3 1.9-.3zm.7 4.9a4.5 4.5 0 0 1-5.5-2.7c.4-.6.9-1.1 1.5-1.5v.4c.4 1.2 1.5 2.1 2.8 2a3 3 0 0 0 2.7-2.9l-.1-.6 1.7-.6v.1c.6 2.4-.7 4.9-3.1 5.6v.2z"/>
            <path class="st0" d="M46.3 44.9c-.1-2.3-2-3.7-5.1-4a11 11 0 0 1-4.7-1.6c-.4-.1-.8.2-.9.7l.1.5c1.6 1.1 3.5 1.7 5.4 2 1.3 0 3.6.5 3.7 2.5.1.4.4.7.8.7.4-.1.7-.4.7-.8zm13-2.4c1.9-.3 3.8-.9 5.4-2 .2-.4.1-.9-.3-1.1l-.5-.1a11 11 0 0 1-4.7 1.7c-3.1.2-5 1.7-5.2 4 0 .4.3.7.7.7.4 0 .7-.3.8-.7.2-2 2.5-2.4 3.8-2.5zm-24.7-5.3c.1.4.6.7 1 .5.4-.1.7-.6.5-1l-.3-.4-3.2-4c-.2-.4-.7-.5-1.1-.3-.4.2-.5.7-.3 1.1l.2.3 3.2 3.8zm3.4-2.1c.1.3.4.5.7.5.4 0 .8-.4.7-.9v-.1L38 30.9c0-.4-.3-.8-.8-.8-.4 0-.8.3-.8.8l.2.6 1.4 3.6zm4 0c.4 0 .7-.2.8-.6l.2-3.2c0-.4-.3-.7-.7-.8-.4-.1-.7.2-.8.6v.1l-.3 3.2c0 .4.4.8.8.8v-.1z"/>
            <path class="st0" d="M95.3 61a83 83 0 0 0-20.5-.8c5-6.3 5-12.4 4-15.3-.6-2.1-1.6-7.5-.3-9.6a2 2 0 0 1 1.2-.8c1.7-.3 2-2 2.3-3.5l.4-1.6c.3-.5.7-1 1.2-1.4a11 11 0 0 0 3.2-4.2c1.5-3.9-.6-5.8-.7-5.9l-.3-.1h-.1a6.2 6.2 0 0 0-4.8.7L78 19.8a6.9 6.9 0 0 1-8-1.4c-4.5-4.3-7.6-5.5-20-5.5S34.5 14 30 18.4a6.9 6.9 0 0 1-8 1.4l-2.8-1.3a6.2 6.2 0 0 0-4.8-.7h-.2l-.2.1c-.1 0-2.3 2-.7 6a11 11 0 0 0 3.2 4.2c.5.3.9.8 1.2 1.3.2.5.3 1.1.3 1.6.3 1.5.6 3.3 2.3 3.5.5.1.9.4 1.2.8 1.3 2.1.3 7.5-.4 9.7-.9 2.8-.9 9 4.1 15.3-6.8-.6-13.7-.4-20.5.7-.4.2-.5.7-.3 1.1.1.3.4.4.7.4 4.1-1.3 15-1 21.2-.7h.3l.6.7c-5.2-.2-10.4.3-15.5 1.6-.4 0-.8.3-.8.8s.3.8.8.8l.6-.2c2.6-1 8.3-1.5 16.6-1.5l1 .9c-7.1.1-14.2 1.1-21 3-.3.3-.2.8.1 1.1l.6.2a92.7 92.7 0 0 1 22.2-3l1 .8c-6.2.7-10.5 1.5-12.7 2.4-.3.3-.4.8-.1 1.1.2.2.4.3.7.3 2-1 6.5-1.7 12.7-2.3 0 1.9.2 3.7.7 5.5 1.6 4.3 3.9 5.4 6.5 5.6.4.7.9 1.3 1.5 1.8a14.9 14.9 0 0 0-3.4 4.5c0 .4.4.8.8.8l.6-.3c.3-.7 1-2 3.3-4.2l2 .8c-.5 1.1-.8 2.2-1 3.4 0 .4.4.8.8.8s.7-.3.7-.7c.2-1.1.5-2.1 1-3.1 2.2.4 4.3.4 6.5 0 .5 1 .8 2 .9 3.1 0 .4.3.7.7.7.4-.1.7-.4.7-.8a10 10 0 0 0-.9-3.4 12 12 0 0 0 2-.8c2.3 2.2 3 3.5 3.3 4.2.3.3.8.4 1.1.1.2-.1.3-.4.3-.6-.8-1.7-2-3.2-3.4-4.5.7-.5 1.2-1.1 1.6-1.8 2.6-.2 4.8-1.3 6.4-5.6.5-1.8.7-3.6.7-5.5a51.4 51.4 0 0 1 13.8 2.4c.3-.3.4-.8.1-1.1l-.6-.3a48.1 48.1 0 0 0-13-2.4l.8-.6.3-.2c6 .3 18.2 1.1 22.4 3 .4 0 .8-.3.9-.7a1 1 0 0 0-.3-.7c-4-1.8-14.6-2.6-21-3l1-.9c8.3.1 14 .6 16.6 1.6.4 0 .8-.3.9-.7a1 1 0 0 0-.3-.7c-2.6-1-7.9-1.5-15.5-1.6l.6-.7h.3c6.1-.3 17-.7 21.1.6.4.1.8-.2.9-.7 0-.3-.2-.6-.5-.8zm-42 19c0-.4-.4-.8-.9-.7s-.8.4-.7.9c0 .2.1.4.3.5l.7 1.2c-1.8.3-3.5.3-5.3 0l.7-1.2c.3-.3.4-.8.1-1.1s-.8-.4-1.1-.1l-.3.4-.9 1.7c-1.4-.3-2.6-1-3.6-2h2.5a6 6 0 0 0 5.2-3.2 6 6 0 0 0 5.3 3.2h2.4c-1 1-2.2 1.7-3.6 2l-.8-1.7v.1zm17.1-17.4-2.8 2.1H67c.1-1.7.4-3.2 1-3.7.2-.4.1-.9-.2-1.1-.2-.1-.4-.2-.7-.1-1 .8-1.4 2.6-1.6 4.8h-.6c-.4-.1-.7.2-.8.6v.2c0 .4.3.7.7.7h.6v.8H65c-.4 0-.7.2-.8.6-.1.4.2.8.7.9h.2c0 1.7-.2 3.4-.6 5-1.4 3.8-3 4.5-5.5 4.7h-3.8c-2.5 0-4.5-2-4.5-4.5l1.1-.8c1-.7 2.5-1.6 2-2.8-.2-.5-.1-.7 1.6-1.8l.6-.5c.7-.4 1.2-1.2 1.3-2 0-.7-.4-1.3-1-1.6a.8.8 0 0 0-1 .2v.1c-.2.4 0 .8.3 1l.3.3c0 .1-.2.4-.7.8l-.6.4c-1.6 1.1-3 2-2.2 3.6 0 .2-.9.7-1.3 1l-1.2.7-1.1-.7-1.3-1c.7-1.6-.6-2.5-2.2-3.6l-.7-.4-.6-.8.2-.4c.2-.4.1-.9-.3-1.1l-.5-.1c-.6.3-1 .9-1 1.6.1.9.6 1.6 1.4 2l.6.4c1.7 1.2 1.9 1.4 1.7 1.8-.6 1.3.9 2.2 2 2.8l1 .8c0 2.5-2 4.5-4.5 4.5h-1.5c-3.8.1-6 .1-7.8-4.7-.4-1.6-.6-3.3-.6-5h.2c.4.2.9-.1 1-.5.2-.4-.1-.9-.5-1a.6.6 0 0 0-.6 0h-.2v-.7h.5c.4-.2.6-.6.5-1l-.5-.5h-.6c-.2-2.2-.6-4-1.6-4.9-.4-.3-.9-.2-1.1.2-.3.4-.2.9.1 1.1.6.5.9 2 1 3.7h-1l-2.4-2-.2-.1-.7-.7 2.4.1c.4-.1.7-.6.5-1l-.4-.5-4-.2c-5.4-6.2-5.6-12.2-4.7-15 0 0 2.3-7.6.2-10.9a3 3 0 0 0-2.2-1.4c-.6 0-.8-1-1-2.3l-.4-1.8c-.4-.8-.9-1.5-1.6-2a9.3 9.3 0 0 1-2.8-3.7c-1-2.3-.2-3.6 0-4 .8-.1 1.6.1 2.2.5 0 0 7.5 5.5 10.8 5.5h.3c-3 2.2-4.8 5-4.8 7.6.2.4.6.6 1 .5l.5-.5c0-2.8 2.6-5.9 6.7-7.8a12 12 0 0 0 4.5-1.5c.4-.1.7-.5.6-1a.8.8 0 0 0-1-.6c-.2 0-.3.1-.4.3a16 16 0 0 1-7.5 1.5c-2.1-.4-4.1-1.3-5.9-2.5 3.2 1.4 6.9.7 9.3-1.7 4-3.9 6.5-5.2 19-5.2s15 1.3 19 5.2a8.3 8.3 0 0 0 9.2 1.7 17 17 0 0 1-5.8 2.6c-2.6.1-5.2-.4-7.6-1.6a1 1 0 0 0-.9.7c0 .2 0 .4.2.6a12 12 0 0 0 4.5 1.5c4 2 6.6 5 6.6 7.9.2.4.6.6 1 .5l.5-.5c0-2.7-1.8-5.5-4.7-7.6h.4c3.3 0 10.7-5.5 10.8-5.6.6-.4 1.3-.6 2-.5.4.4 1.1 1.7.1 4a9.4 9.4 0 0 1-2.7 3.8c-.7.5-1.3 1.2-1.7 2l-.4 1.8c-.2 1.3-.4 2.2-1 2.2a3 3 0 0 0-2.3 1.5c-2 3.3.2 10.9.3 11 .9 2.7.7 8.7-4.7 14.8l-4 .3c-.4.2-.6.6-.5 1l.5.5 2.4-.2-.8.8.1-.1z"/>
            <path class="st0" d="m64.8 37.5.5-.2 3.2-4c.4-.2.6-.7.4-1.1-.2-.4-.7-.6-1.1-.4l-.4.4-3.2 4c-.2.4-.1.9.3 1.1.1.2.2.2.3.2zm-3.7-2h.2c.3 0 .6-.2.7-.5l1.5-3.6c.3-.3.3-.8-.1-1.1s-.8-.3-1.1.1l-.2.5-1.5 3.7c-.1.3.1.8.5.9zm-3.1-.3c.4-.1.7-.4.7-.8l-.3-3.2c-.2-.4-.7-.6-1.1-.4-.2.1-.4.3-.4.5l.3 3.2c.1.4.4.7.8.7z"/>
            <circle class="st0" cx="38.1" cy="69.8" r="1.1"/>
            <circle class="st0" cx="38.5" cy="73.4" r="1.1"/>
            <circle class="st0" cx="41.2" cy="75.8" r="1.1"/>
            <circle class="st0" cx="42.1" cy="72.1" r="1.1"/>
            <circle class="st0" cx="45.1" cy="74" r="1.1"/>
            <circle class="st0" cx="61.9" cy="69.8" r="1.1"/>
            <circle class="st0" cx="61.5" cy="73.4" r="1.1"/>
            <circle class="st0" cx="58.8" cy="75.8" r="1.1"/>
            <circle class="st0" cx="57.9" cy="72.1" r="1.1"/>
            <circle class="st0" cx="54.9" cy="74" r="1.1"/>
            <path class="st0" d="M53.6 52.5c-.4 0-.7.3-.8.7-.3 2.1-1.3 4-2.8 5.4a9 9 0 0 1-2.7-5.4c-.2-.4-.7-.6-1.1-.4-.2.1-.4.3-.4.5a11 11 0 0 0 3.7 6.9l.5.1.4-.1c2.1-1.8 3.4-4.2 3.8-6.9 0-.4-.2-.7-.6-.8zm-13.2 2.7c-.4-.2-.8 0-1 .3l-.8 1c-1.3 2-3.3 5-.5 8 .4.2.9 0 1.1-.4v-.6c-1.9-2-.9-3.7.7-6l.8-1.2c.2-.4.1-.9-.3-1.1zm20.3.3c0-.4-.4-.8-.9-.7-.4 0-.8.4-.7.9 0 .2.1.4.3.5l.8 1.2c1.5 2.3 2.5 4 .6 6.1-.4.2-.6.7-.4 1.1.2.4.7.6 1.1.4l.4-.4c2.9-3 .9-6-.5-8l-.7-1.1zM41.9 65c0-.4-.4-.8-.8-.8l-.6.3c-.6 1.9.2 3.9 1.9 4.9.4 0 .8-.3.9-.7 0-.2 0-.4-.2-.6-1.1-.6-1.5-1.9-1.2-3.1zm15.7 4.3a4 4 0 0 0 2-4.8c-.2-.4-.7-.5-1.1-.3-.3.2-.5.5-.4.8.3 1.2-.2 2.4-1.2 3-.3.3-.2.8.1 1.1.2.2.4.2.6.2zM53 65.2a3.8 3.8 0 0 1-5.4.4l-.4-.4c-.3-.3-.9-.2-1.1.1-.2.2-.2.6-.1.9a5.4 5.4 0 0 0 7.5.6l.6-.6c.2-.4-.1-.9-.5-1a.6.6 0 0 0-.6 0zM30.5 50.5c-.3-.3-.8-.4-1.1-.1-.3.3-.4.8-.1 1.1.1.2.3.3.5.3 2.6 1.5 3.8 3.6 3.8 4.4.2.4.6.6 1 .5l.5-.5c0-1.6-1.7-4.1-4.6-5.7zm40 .3c-.2-.3-.6-.5-1-.3-2.8 1.6-4.5 4.1-4.5 5.7.2.4.6.6 1 .5l.5-.5c0-.8 1.1-3 3.8-4.4.3-.2.5-.6.3-1h-.1z"/>
            <path id="_x35_4c8ca41-f910-4170-8f82-6d26474b6f31" d="m117.7 69.1-.9-2.3h-3.5l-.9 2.4h-.6l2.9-7.4h.6l2.9 7.3h-.5zm-4.2-2.8h3.2l-1.3-3.2-.2-.8-.3.8-1.4 3.2zm14.3-.8h3v3.6h-.4v-1.3c-.2.4-.6.8-1 1-.4.3-.9.4-1.6.4-.6 0-1.2-.2-1.7-.5s-.9-.8-1.2-1.3a4 4 0 0 1-.4-2c0-.7.1-1.4.4-2s.7-1 1.2-1.3c.5-.3 1.1-.5 1.7-.5.7 0 1.3.2 1.8.5s.8.8 1.1 1.3l-.6.2c-.2-.5-.4-.9-.8-1.1-.4-.3-.9-.4-1.6-.4-.5 0-1 .1-1.4.4-.4.3-.7.6-.9 1.1-.3.5-.4 1.1-.4 1.7 0 1.1.3 1.8.8 2.4.5.6 1.1.9 2 .9.5 0 1-.1 1.3-.3.4-.2.6-.5.8-.8.2-.4.3-.7.3-1.1V66h-2.5c.1.1.1-.5.1-.5zm11.1 3.1h4.6v.5h-5.1v-7.3h5v.5H139v2.8h3.5v.6H139v2.9zm17.4-6.8v7.3h-.8l-3.8-5.7-.6-1v6.7h-.5v-7.3h.7l3.7 5.7.6 1v-6.7h.7zm13.6 5.5c-.2.6-.6 1.1-1.1 1.4-.5.4-1.1.6-1.8.6s-1.3-.2-1.7-.5c-.5-.3-.9-.8-1.2-1.3a4 4 0 0 1-.4-2c0-.7.1-1.4.4-2a3.4 3.4 0 0 1 2.9-1.8c1.4 0 2.4.6 2.8 1.8l-.6.2c-.2-.5-.5-.9-.8-1.1-.4-.3-.9-.4-1.5-.4-.5 0-1 .1-1.4.4-.4.3-.7.6-.9 1.1-.3.5-.4 1.1-.4 1.7 0 .7.1 1.3.4 1.7.2.5.5.9.9 1.1.4.3.8.4 1.4.4s1.1-.1 1.5-.4c.4-.3.7-.7.8-1.3l.7.4zm7.6 1.3h4.7v.5H177v-7.3h5v.5h-4.4v2.8h3.6v.6h-3.6l-.1 2.9zm23.1-6.8c1.2 0 2.1.3 2.7.9.6.6.9 1.4.9 2.6 0 1.2-.3 2.1-.9 2.8-.6.6-1.5.9-2.7.9h-2.4v-7.3l2.4.1zm0 6.8c1.1 0 1.8-.3 2.3-.8.5-.6.8-1.4.8-2.4 0-1.1-.3-1.8-.8-2.4s-1.3-.8-2.2-.8h-1.8v6.3h1.7v.1zm11.6 0h4.6v.5h-5.1v-7.3h5v.5h-4.5v2.8h3.6v.6h-3.5l-.1 2.9zm24.2-4.6-1.5 5.1h-.7l-2.2-7.3h.6l2.1 6.9 1.9-6.9h.6l1.9 6.9 2.1-6.9h.6l-2.1 7.3h-.8l-1.4-5.1-.4-1.6-.4 1.6h-.3zm12.8 4.6h4.6v.5h-5.1v-7.3h5v.5h-4.4v2.8h3.5v.6h-3.5v2.9zm11.8.5v-7.3h2.5a3 3 0 0 1 1.8.5c.4.3.6.8.6 1.4 0 .4-.1.8-.4 1.1-.2.3-.5.5-.9.6.5.1.8.3 1.1.6.3.3.4.7.4 1.1a2 2 0 0 1-.6 1.5c-.5.3-1.1.5-2 .5H261zm.6-3.9h2.1c1.2 0 1.7-.5 1.7-1.4 0-.9-.6-1.4-1.7-1.4h-2.1v2.8zm0 3.4h2.1c.6 0 1.1-.1 1.4-.4.3-.3.5-.6.5-1.1 0-.5-.2-.8-.5-1-.3-.3-.8-.4-1.4-.4h-2.1v2.9zm23.2-6.8c1.2 0 2.1.3 2.7.9.7.5 1.1 1.4 1.1 2.6 0 1.2-.3 2.1-.9 2.8-.6.6-1.5.9-2.7.9h-2.3v-7.3h2.4-.3zm0 6.8c1.1 0 1.8-.3 2.4-.8.5-.6.7-1.4.7-2.4 0-1.1-.3-1.8-.8-2.4-.5-.5-1.3-.8-2.2-.8H283v6.3h1.8v.1zm11.6 0h4.6v.5h-5.1v-7.3h5v.5h-4.3v2.8h3.5v.6h-3.5l-.2 2.9zm14-6.9c1.4 0 2.3.5 2.8 1.6l-.5.5c-.2-.5-.5-.9-.8-1.2a3.6 3.6 0 0 0-2.6-.1l-.8.6-.2.8.2.7.8.5 1.3.3c.9.2 1.6.4 2.1.8.4.3.6.7.6 1.2 0 .4-.1.8-.3 1.1a2 2 0 0 1-1 .6c-.4.2-.9.3-1.4.3-.7 0-1.4-.2-1.9-.5s-.9-.8-1.1-1.3l.5-.3c.2.5.5.9.9 1.2.4.3.9.4 1.6.4.7 0 1.2-.1 1.6-.4.4-.3.6-.6.6-1s-.2-.7-.6-.9l-1.7-.6-1.6-.4-.9-.6c-.2-.3-.2-.6-.2-.9 0-.4.1-.7.3-1 .2-.4.5-.6.9-.8.4-.5.8-.6 1.4-.6zm10.6.1v7.3h-.6v-7.3h.6zm10.7 3.7h3v3.6h-.5v-1.3c-.2.4-.5.8-.9 1-.4.3-.9.4-1.6.4-.7 0-1.3-.2-1.7-.5-.5-.3-.9-.8-1.2-1.3a4 4 0 0 1-.4-2c0-.7.2-1.4.5-2 .3-.6.6-1 1.1-1.3.5-.3 1.1-.5 1.7-.5.7 0 1.4.2 1.9.5.4.3.8.8 1 1.3l-.5.2a2 2 0 0 0-.9-1.1c-.4-.3-.9-.4-1.6-.4-.5 0-1 .1-1.4.4-.4.3-.7.6-.9 1.1-.2.5-.3 1.1-.3 1.7 0 1.1.2 1.8.7 2.4.5.6 1.1.9 2 .9.5 0 1-.1 1.3-.3.4-.2.6-.5.8-.8.2-.4.3-.7.3-1.1V66h-2.4v-.5zm16.1-3.7v7.3h-.6l-3.9-5.7-.5-1v6.7h-.6v-7.3h.8l3.8 5.7.6 1v-6.7h.4z"/>
            <path id="_x34_09599fb-89aa-4ddd-9c19-604f11e9ffd0" d="M114.5 55.9v-3.6l1.1-12.6c1-7.2 1.4-13 1.4-17.3v-3.6c2.4 0 4 .6 4.7 1.8l.7 1.8v2.5L121 38.6c-1.2 7.7-1.8 13.2-1.8 16.6h1.1c7.2 0 12.6-.6 16.2-1.8-.2 1.9-1 3.5-2.2 4.7a6 6 0 0 1-4 1.4H126l-7.2-.4-7.2.4a9.4 9.4 0 0 1 2.9-3.6zM148 39c-1.2 1.9-2 3.7-2.5 5.4l-.7 5c0 1.7.4 3 1.1 4a3.5 3.5 0 0 0 3.2 1.8c1.9 0 3.6-1 5-2.9a27.2 27.2 0 0 0 5.4-15.9l-.4-6.1h1.4c2.9 0 4.3 1.4 4.3 4.3l-1.1 7.6c-1 4.8-1.4 8.4-1.4 10.8 0 2.9.6 5.3 1.8 7.2-2.4 0-4-.8-4.7-2.5-1-1.4-1.4-3.5-1.4-6.1v-2.9a13 13 0 0 1-4.7 7.9c-2.4 1.9-4.7 2.9-6.8 2.9s-3.8-.8-5-2.5a11 11 0 0 1-2.2-7.2c0-2.6.6-5.4 1.8-8.3 1-2.9 2.5-5.3 4.7-7.2 2.4-2.2 4.8-3.2 7.2-3.2l4.3.7c-2.2.5-4.1 1.4-5.8 2.9a15.8 15.8 0 0 0-3.6 4.7V39zm50.4-15.2v.7L197 36.7c-.7 7.2-1.1 13.2-1.1 18v4.7h-1.1c-1.7 0-2.9-.2-3.6-.7-.7-.7-1.1-1.9-1.1-3.6l1.8-14.4c1.2-7.9 1.8-13.6 1.8-16.9s-.2-5.5-.7-6.5c1 0 1.9.4 2.9 1.1 1 .7 1.7 1.7 2.2 2.9 2.4-1.4 5.3-2.2 8.6-2.2 3.1 0 5.5 1 7.2 2.9a9.8 9.8 0 0 1 2.9 7.2c0 3.6-1.3 6.8-4 9.7a13.7 13.7 0 0 1-10.8 4.3h-2.5v-1.8a15 15 0 0 0 5.8-1.1 7.2 7.2 0 0 0 3.6-2.9c1.7-1.9 2.5-4.3 2.5-7.2 0-2.4-.6-4.2-1.8-5.4a8 8 0 0 0-5.8-2.2c-1.7.1-3.5.5-5.4 1.2zM227.9 39c-1.2 1.9-2 3.7-2.5 5.4l-.7 5c0 1.7.4 3 1.1 4a3.5 3.5 0 0 0 3.2 1.8c1.9 0 3.7-1 5.4-2.9 1.4-2.4 2.6-4.9 3.6-7.6 1-3.1 1.4-5.9 1.4-8.3l-.7-6.1h1.4c2.9 0 4.3 1.4 4.3 4.3l-1.1 7.6c-1 4.8-1.4 8.4-1.4 10.8 0 2.9.6 5.3 1.8 7.2-2.4 0-4-.8-4.7-2.5-1-1.4-1.4-3.5-1.4-6.1v-2.9a13 13 0 0 1-4.7 7.9 11.4 11.4 0 0 1-6.8 2.9c-2.2 0-3.8-.8-5-2.5a11 11 0 0 1-2.2-7.2c0-2.6.6-5.4 1.8-8.3 1-2.9 2.5-5.3 4.7-7.2 2.4-2.2 4.8-3.2 7.2-3.2l4.3.7c-2.2.5-4.1 1.4-5.8 2.9a15.8 15.8 0 0 0-3.6 4.7l.4-.4zm48.2-2.2-1.1 8.3-1.1 8.6c0 1.7.2 2.9.7 3.6.5 1 1.2 1.7 2.2 2.2H275c-2.4 0-4.1-.4-5-1.1-1-1-1.4-2.5-1.4-4.7l1.1-7.2 1.1-8.6c0-2.4-.7-3.6-2.2-3.6-2.2 0-4.3 2-6.5 6.1a24.3 24.3 0 0 0-3.6 13.7l.4 4.7h-1.4c-3.1 0-4.7-1.4-4.7-4.3l1.1-7.6a78 78 0 0 0 1.1-10.8c0-2.6-.2-5-.7-7.2 1.9.7 3.4 1.8 4.3 3.2.7 1.4 1.1 3 1.1 4.7l-.7 6.5c1.2-3.8 3-7.1 5.4-9.7 2.4-2.4 4.6-3.6 6.5-3.6 3.6 0 5.4 2.4 5.4 7.2l-.2-.4zm23.8-5.4a4 4 0 0 1-1.1 2.9c-.5.5-1.2.7-2.2.7H293l-1.1 6.1c-1.2 6.2-1.8 11-1.8 14.4 0 3.1.2 5.2.7 6.1a7.3 7.3 0 0 1-4-3.2 8.4 8.4 0 0 1-1.4-5l.4-5.8 1.1-6.5L288 35l-5.8 1.8v-1.4c0-1.7.6-2.9 1.8-3.6l4.7-.4V20.9c1.7.2 2.9 1 3.6 2.2 1 1.2 1.4 2.8 1.4 4.7v3.6c2.6 0 4.6-.5 5.8-1.4v1.4h.4zm9.4 11.9c1-3.8 2.6-7.1 5-9.7 2.4-2.4 4.6-3.6 6.5-3.6 2.2 0 3.6.6 4.3 1.8 1 1.2 1.4 2.8 1.4 4.7 0 2.4-.4 5.4-1.1 9l-1.1 8.3c0 1.7.2 2.9.7 3.6.5 1 1.2 1.7 2.2 2.2h-1.8c-2.4 0-4-.4-4.7-1.1-1.2-1-1.8-2.5-1.8-4.7l1.1-7.2 1.1-8.6c0-2.4-.7-3.6-2.2-3.6-1 0-2 .6-3.2 1.8-1.2 1-2.3 2.2-3.2 3.6-1 1.7-1.8 3.8-2.5 6.5-.7 2.4-1.1 4.8-1.1 7.2l.4 5.4h-1.4a8 8 0 0 1-3.6-.7c-.7-.7-1.1-1.8-1.1-3.2l1.1-8.3c1.7-12.5 2.5-22 2.5-28.4l.4-5.8c1.9.7 3.2 1.7 4 2.9.7 1.4 1.1 3.4 1.1 5.8l-.7 10.8-1.6 11.3h-.7zm38.1-10.8c-2.2 0-3.8 1.2-5 3.6-1.4 2.4-2.4 5-2.9 7.9h1.4c1.7 0 3.2-.2 4.7-.7l2.9-1.8a8.5 8.5 0 0 0 2.2-5.4c0-1.2-.4-2-1.1-2.5-.5-.8-1.2-1.1-2.2-1.1zm7.2 20.5a14.7 14.7 0 0 1-5.4 5c-1.7 1-3.8 1.4-6.5 1.4a7.6 7.6 0 0 1-6.1-3.2c-1.9-1.9-2.9-4.9-2.9-9a21 21 0 0 1 3.6-11.9 13 13 0 0 1 4.7-4c1.9-1.2 4-1.8 6.1-1.8 5 0 7.6 2.4 7.6 7.2 0 3.1-1.1 5.5-3.2 7.2-2.4 1.7-5 2.5-7.9 2.5a19 19 0 0 1-5.4-.7v1.8c0 5.8 1.8 8.6 5.4 8.6 3.4 0 6-1.6 7.9-4.7 1.2 0 1.8.4 1.8 1.1l.3.5zm-.7-27c0 .5-.2.8-.7 1.1l-1.1.7a15 15 0 0 0-4.7-4.7 16.6 16.6 0 0 0-5.8-2.9c0-1.9.8-3.4 2.5-4.3 1.7.7 3.5 2.2 5.4 4.3 2 1.9 3.5 3.9 4.4 5.8zm14.8 16.6c1.2-4.3 2.6-7.6 4.3-9.7 1.7-2.2 3.2-3.2 4.7-3.2 1.4 0 2.6.6 3.6 1.8a7.7 7.7 0 0 1 1.1 4c0 1.9-.5 3.5-1.4 4.7a4.5 4.5 0 0 1-3.6 1.8h-1.8c1.2-1.9 1.8-3.7 1.8-5.4 0-1.2-.6-1.8-1.8-1.8-.7 0-1.4.5-2.2 1.4l-2.5 3.6c-1 1.7-1.7 3.8-2.2 6.5-.5 2.4-.7 5.2-.7 8.3v4.3h-1.4c-2.9 0-4.3-1.4-4.3-4.3l1.1-7.6a78 78 0 0 0 1.1-10.8c0-2.6-.4-5-1.1-7.2 2.2.7 3.6 1.8 4.3 3.2.7 1.4 1.1 3.1 1.1 5l-.4 5.4h.3zm29.9-10.5c-2.2 0-4 1.2-5.4 3.6-1.4 2.4-2.4 5-2.9 7.9h1.4c1.9 0 3.5-.2 4.7-.7a8.7 8.7 0 0 0 3.2-1.8 9.2 9.2 0 0 0 1.8-5.4c0-1.2-.2-2-.7-2.5-.5-.7-1.3-1.1-2.5-1.1h.4zm7.2 20.5c-1.7 2.4-3.5 4.1-5.4 5s-4.1 1.4-6.5 1.4-4.6-1.1-6.5-3.2c-1.7-1.9-2.5-4.9-2.5-9a21 21 0 0 1 3.6-11.9 13 13 0 0 1 4.7-4c1.9-1.2 4-1.8 6.1-1.8 5 0 7.6 2.4 7.6 7.2 0 3.1-1.2 5.5-3.6 7.2a12 12 0 0 1-7.6 2.5 19 19 0 0 1-5.4-.7v1.8c0 5.8 1.8 8.6 5.4 8.6 3.1 0 5.8-1.6 7.9-4.7 1.2 0 1.8.4 1.8 1.1l.4.5z"/>
        </g>
    </symbol>
    <symbol id="img-design" viewBox="0 0 672 512">
        <g>
            <path d="M672 168v320c0 13-11 24-24 24H24c-13 0-24-11-24-24V168c0-4 4-8 8-8s8 4 8 8v320c0 4 4 8 8 8h624c4 0 8-4 8-8V168c0-4 4-8 8-8s8 4 8 8zm0-144v96c0 4-4 8-8 8H8c-4 0-8-4-8-8V24C0 11 11 0 24 0h624c13 0 24 11 24 24zm-16 0c0-4-4-8-8-8H24c-4 0-8 4-8 8v88h640V24zM72 448c-4 0-8-4-8-8V184c0-4 4-8 8-8h208c4 0 8 4 8 8v256c0 4-4 8-8 8H72zm8-16h192V192H80v240zm272-200c0-4 4-8 8-8h240c4 0 8 4 8 8s-4 8-8 8H360c-4 0-8-4-8-8zm0 80c0-4 4-8 8-8h240c4 0 8 4 8 8s-4 8-8 8H360c-4 0-8-4-8-8zm0 80c0-4 4-8 8-8h240c4 0 8 4 8 8s-4 8-8 8H360c-4 0-8-4-8-8zM64 48c9 0 16 7 16 16s-7 16-16 16-16-7-16-16 7-16 16-16zm64 0c9 0 16 7 16 16s-7 16-16 16-16-7-16-16 7-16 16-16zm64 0c9 0 16 7 16 16s-7 16-16 16-16-7-16-16 7-16 16-16z"/>
        </g>
    </symbol>
    <symbol id="img-strat" viewBox="0 0 560 512">
        <g>
            <path d="M48 56v272c0 4 4 8 8 8h448c4 0 8-4 8-8V56c0-4 4-8 8-8s8 4 8 8v272c0 13-11 24-24 24H56c-13 0-24-11-24-24V56c0-4 4-8 8-8s8 4 8 8zM560 8c0 4-4 8-8 8H8c-4 0-8-4-8-8s4-8 8-8h544c4 0 8 4 8 8zM312 221l109-109h-61c-4 0-8-4-8-8s4-8 8-8h80l3 1a8 8 0 0 1 5 7v80c0 4-4 8-8 8s-8-4-8-8v-61L318 238l-6 2-6-2-90-91-91 75c-3 3-8 3-11-1-3-3-3-8 1-11l96-80c3-3 8-3 11 0l90 91zM161 508c-2-4-1-9 3-11l111-58c-2-1-3-3-3-6v-41c0-4 4-8 8-8s8 4 8 8v41c0 3-1 5-3 6l111 58c4 2 5 7 3 11a8 8 0 0 1-11 3l-108-57-108 57c-4 2-9 1-11-3z"/>
        </g>
    </symbol>
    <symbol id="img-pencil" viewBox="0 0 512 512">
        <g>
            <path d="M0 488V24A24 24 0 0 1 24 0h464a24 24 0 0 1 24 24v464a24 24 0 0 1-24 24H24a24 24 0 0 1-24-24zm16 0a8 8 0 0 0 8 8h464a8 8 0 0 0 8-8V24a8 8 0 0 0-8-8H24a8 8 0 0 0-8 8v464zm48-32.3a8 8 0 0 1-7.6-10.5L107 289.8a8.3 8.3 0 0 1 2-3.2l161.9-161.9c.3-.4.5-.9.9-1.3l59.8-59.8a25 25 0 0 1 35.2 0l83.8 83.7a25 25 0 0 1 0 35.2L392 241.1l-.8 1.3-161.5 163.2c-.9.9-2.1 1.6-3.4 2l-160 47.7c-.8.3-1.5.4-2.3.4zm66.4-168L158 294l136.4-137-16.6-16.6-147.4 147.3zm37.6 18.9V344h36.7l139.9-136.8-38.9-38.9L168 306.6zm187.9-88L217 354.4l9.2 32 147.9-149.6-18.2-18.2zm-279.6 217 135.8-40.4L202 360h-42a8 8 0 0 1-8-8v-43l-32.1-7.3-43.6 133.9zm212.5-306.8 96.4 96.4 54-54a8.9 8.9 0 0 0 0-12.6l-83.8-83.8a8.9 8.9 0 0 0-12.6 0l-54 54z"/>
        </g>
    </symbol>
</svg>
